<svg width="40" height="47" viewBox="0 0 40 47" fill="none" xmlns="http://www.w3.org/2000/svg">
<g filter="url(#filter0_d)">
<path
      d="M32 17.6364C32 22.6521 24.6906 32.2426 21.4811 36.2118C20.7122 37.1627 19.2878 37.1627 18.5189 36.2118C15.3094 32.2426 8 22.6521 8 17.6364C8 11.2098 13.3726 6 20 6C26.6274 6 32 11.2098 32 17.6364Z"
      fill="#EF5844"
    />
<circle cx="20" cy="18" r="8" fill="white" />
<path
      d="M16.7185 20.86C17.3065 21.58 18.3985 22.144 19.8745 22.144C21.7945 22.144 23.0305 21.172 23.0305 19.792C23.0305 18.592 21.9745 17.956 21.1585 17.872C22.0465 17.716 22.9105 17.056 22.9105 16.048C22.9105 14.716 21.7585 13.876 19.8865 13.876C18.4825 13.876 17.4745 14.416 16.8265 15.148L17.6665 16.204C18.2305 15.664 18.9385 15.364 19.7065 15.364C20.5465 15.364 21.1945 15.688 21.1945 16.324C21.1945 16.924 20.6065 17.212 19.7185 17.212C19.4185 17.212 18.8665 17.212 18.7225 17.2V18.688C18.8425 18.676 19.3825 18.676 19.7185 18.676C20.8345 18.676 21.3265 18.976 21.3265 19.624C21.3265 20.236 20.7865 20.656 19.8145 20.656C19.0345 20.656 18.1585 20.32 17.6065 19.744L16.7185 20.86Z"
      fill="#172C42"
    />
</g>
<defs>
<filter
      id="filter0_d"
      x="0"
      y="0"
      width="40"
      height="46.925"
      filterUnits="userSpaceOnUse"
      color-interpolation-filters="sRGB"
    >
<feFlood flood-opacity="0" result="BackgroundImageFix" />
<feColorMatrix
        in="SourceAlpha"
        type="matrix"
        values="0 0 0 0 0 0 0 0 0 0 0 0 0 0 0 0 0 0 127 0"
        result="hardAlpha"
      />
<feOffset dy="2" />
<feGaussianBlur stdDeviation="4" />
<feColorMatrix type="matrix" values="0 0 0 0 0 0 0 0 0 0 0 0 0 0 0 0 0 0 0.15 0" />
<feBlend mode="normal" in2="BackgroundImageFix" result="effect1_dropShadow" />
<feBlend mode="normal" in="SourceGraphic" in2="effect1_dropShadow" result="shape" />
</filter>
</defs>
</svg>
