<svg width="40" height="47" viewBox="0 0 40 47" fill="none" xmlns="http://www.w3.org/2000/svg">
<g filter="url(#filter0_d)">
<path
      d="M32 17.6364C32 22.6521 24.6906 32.2426 21.4811 36.2118C20.7122 37.1627 19.2878 37.1627 18.5189 36.2118C15.3094 32.2426 8 22.6521 8 17.6364C8 11.2098 13.3726 6 20 6C26.6274 6 32 11.2098 32 17.6364Z"
      fill="#EF5844"
    />
<circle cx="20" cy="18" r="8" fill="white" />
<path
      d="M20.048 22H21.752V20.344H22.784V18.844H21.752V13.996H19.4L16.22 19V20.344H20.048V22ZM20.048 15.508V18.844H17.888L20.048 15.508Z"
      fill="#172C42"
    />
</g>
<defs>
<filter
      id="filter0_d"
      x="0"
      y="0"
      width="40"
      height="46.925"
      filterUnits="userSpaceOnUse"
      color-interpolation-filters="sRGB"
    >
<feFlood flood-opacity="0" result="BackgroundImageFix" />
<feColorMatrix
        in="SourceAlpha"
        type="matrix"
        values="0 0 0 0 0 0 0 0 0 0 0 0 0 0 0 0 0 0 127 0"
        result="hardAlpha"
      />
<feOffset dy="2" />
<feGaussianBlur stdDeviation="4" />
<feColorMatrix type="matrix" values="0 0 0 0 0 0 0 0 0 0 0 0 0 0 0 0 0 0 0.15 0" />
<feBlend mode="normal" in2="BackgroundImageFix" result="effect1_dropShadow" />
<feBlend mode="normal" in="SourceGraphic" in2="effect1_dropShadow" result="shape" />
</filter>
</defs>
</svg>
